<svg width="16" height="20" viewBox="0 0 16 20" fill="none" xmlns="http://www.w3.org/2000/svg">
<mask id="mask0" mask-type="alpha" maskUnits="userSpaceOnUse" x="1" y="3" width="14" height="14">
<path fill-rule="evenodd" clip-rule="evenodd" d="M7.99998 3.3335C4.31998 3.3335 1.33331 6.32016 1.33331 10.0002C1.33331 13.6802 4.31998 16.6668 7.99998 16.6668C11.68 16.6668 14.6666 13.6802 14.6666 10.0002C14.6666 6.32016 11.68 3.3335 7.99998 3.3335ZM7.99998 10.6668C7.63331 10.6668 7.33331 10.3668 7.33331 10.0002V7.3335C7.33331 6.96683 7.63331 6.66683 7.99998 6.66683C8.36665 6.66683 8.66665 6.96683 8.66665 7.3335V10.0002C8.66665 10.3668 8.36665 10.6668 7.99998 10.6668ZM7.33331 12.0002V13.3335H8.66665V12.0002H7.33331Z" fill="black"/>
</mask>
<g mask="url(#mask0)">
<rect y="2" width="16" height="16" fill="#DA1414"/>
</g>
</svg>
