<svg width="20" height="20" viewBox="0 0 20 20" fill="none" xmlns="http://www.w3.org/2000/svg">
<path fill-rule="evenodd" clip-rule="evenodd" d="M20 10C20 15.5228 15.5228 20 10 20C5.83293 20 2.26117 17.4512 0.758658 13.8275C0.874212 13.7869 0.979188 13.7004 1.0542 13.5566C2.40834 10.943 4.56408 8.8727 7.17157 7.62407C7.30491 7.97921 7.5011 8.29443 7.79312 8.50244C8.63056 9.09358 9.734 8.76845 10.5714 8.34481C11.2512 7.99998 10.6503 6.97535 9.97046 7.32018C9.60593 7.50737 8.77834 7.88175 8.41381 7.48766C8.33846 7.40346 8.29303 7.28535 8.26135 7.16026C8.85261 6.93895 9.46292 6.75813 10.0887 6.62065C10.8276 6.45317 10.5123 5.32016 9.77341 5.4778C9.18724 5.60637 8.61251 5.77161 8.05211 5.97116C8.05069 5.89659 8.05545 5.82359 8.06898 5.75367C8.13795 5.36944 8.49263 5.16254 8.83745 5.03446C9.00494 4.97535 9.17243 4.92609 9.34977 4.89653C9.3793 4.89161 9.41129 4.88669 9.44328 4.88177L9.44336 4.88175C9.47538 4.87683 9.5074 4.8719 9.53696 4.86697L9.54734 4.86455C10.276 4.76677 10.2788 3.60661 9.52711 3.68471C8.24632 3.81279 6.8079 4.532 6.88671 6.01968C6.89458 6.14875 6.90472 6.28687 6.91912 6.42995C4.15776 7.68727 1.82396 9.80214 0.304937 12.4604C0.105801 11.6733 0 10.849 0 10C0 4.47715 4.47715 0 10 0C14.8675 0 18.9228 3.47768 19.8166 8.0839C19.705 8.10001 19.5942 8.15951 19.4976 8.27585C18.0226 10.0527 16.1474 11.4143 14.0107 12.248C13.3439 11.5692 12.3493 11.4541 12.1379 11.4384C10.67 11.3005 9.66504 12.335 9.37932 12.6601L9.3749 12.6652C9.11314 12.9672 8.23842 13.9763 8.58129 15.0049C8.94745 16.1323 10.4916 16.3738 10.9095 16.4392L10.936 16.4433C11.3301 16.5025 12.7291 16.6995 13.734 15.6946C14.2595 15.1691 14.7548 14.2369 14.5681 13.2997C16.6384 12.4682 18.4956 11.1857 19.9885 9.51579C19.9961 9.67623 20 9.83766 20 10Z" fill="#FF906D"/>
</svg>
